<svg width="24" height="24" viewBox="0 0 24 24" fill="none" xmlns="http://www.w3.org/2000/svg">
<path d="M15.5998 2.7002C13.461 1.86928 11.1015 1.79917 8.91713 2.50162C6.73275 3.20407 4.85639 4.63636 3.60282 6.5582C2.34925 8.48005 1.79472 10.7745 2.03226 13.0567C2.26981 15.339 3.28498 17.4701 4.90746 19.0926C6.52995 20.715 8.66105 21.7302 10.9433 21.9678C13.2255 22.2053 15.52 21.6508 17.4418 20.3972C19.3637 19.1436 20.7959 17.2673 21.4984 15.0829C22.2008 12.8985 22.1307 10.539 21.2998 8.4002" stroke="#007EF3" stroke-width="2" stroke-linecap="round" stroke-linejoin="round"/>
<path d="M12 14C13.1046 14 14 13.1046 14 12C14 10.8954 13.1046 10 12 10C10.8954 10 10 10.8954 10 12C10 13.1046 10.8954 14 12 14Z" stroke="#007EF3" stroke-width="2" stroke-linecap="round" stroke-linejoin="round"/>
<path d="M13.4004 10.6L19.0004 5" stroke="#007EF3" stroke-width="2" stroke-linecap="round" stroke-linejoin="round"/>
</svg>
